<?xml version="1.0"?>
<svg width="304" height="304" xmlns="http://www.w3.org/2000/svg" xmlns:svg="http://www.w3.org/2000/svg" data-name="Layer 1">
 <defs>
  <style>.cls-1 {
        fill: #3f48d3;
      }

      .cls-2 {
        fill: #00a8f3;
      }</style>
 </defs>
 <g class="layer">
  <title>Layer 1</title>
  <g id="svg_5" transform="translate(0 93.215) translate(61.97 0) translate(0 -31.155) matrix(1 0 0 1 -63.57 -93.21)">
   <path class="cls-2" d="m256.43,241.16c0,53.12 -44.25,96.09 -97.82,94.01c-48.83,-1.9 -88.39,-41.47 -90.28,-90.3c-2.07,-53.56 40.9,-97.79 94.01,-97.79c1.53,0 3.05,0.04 4.56,0.11c1.98,0.1 3.93,0.27 5.87,0.48c-4.47,-16.51 -19.3,-28.9 -36.89,-29.76c-10.76,-0.53 -20.66,3.19 -28.18,9.62c-1.48,1.28 -3.63,1.43 -5.33,0.48l-11.39,-6.4c-2.29,-1.28 -2.76,-4.4 -0.93,-6.28c11.13,-11.39 26.66,-18.47 43.81,-18.47c33.81,0 61.3,27.5 61.3,61.3c0,9.77 -2.3,19.02 -6.38,27.23c19.8,-14.47 32.22,-38.44 30.5,-65.15c-2.43,-37.73 -33.3,-67.93 -71.07,-69.59c-40.15,-1.77 -73.78,28.4 -77.58,67.17c-0.14,1.46 -0.92,2.78 -2.16,3.57l-11.41,7.22c-2.73,1.73 -6.29,-0.23 -6.29,-3.46c0,-53.12 44.25,-96.09 97.82,-94.01c48.83,1.9 88.39,41.48 90.28,90.3c2.07,53.57 -40.9,97.79 -94.01,97.79c-1.53,0 -3.05,-0.04 -4.56,-0.11c-1.98,-0.09 -3.93,-0.26 -5.87,-0.48c4.47,16.51 19.3,28.9 36.89,29.76c10.76,0.53 20.66,-3.19 28.18,-9.62c1.49,-1.27 3.63,-1.43 5.33,-0.48l11.39,6.4c2.29,1.28 2.76,4.4 0.93,6.28c-11.13,11.39 -26.66,18.47 -43.81,18.47c-33.81,0 -61.3,-27.5 -61.3,-61.3c0,-9.77 2.3,-19.02 6.38,-27.23c-19.8,14.47 -32.22,38.44 -30.5,65.15c2.43,37.74 33.3,67.94 71.07,69.6c40.16,1.76 73.78,-28.41 77.58,-67.18c0.14,-1.46 0.92,-2.78 2.16,-3.57l11.41,-7.22c2.73,-1.73 6.29,0.23 6.29,3.46z" id="svg_1"/>
   <g id="svg_4">
    <polygon class="cls-1" id="svg_2" points="209.56 207.2 209.56 228.13 227.69 238.6 245.83 228.13 245.83 207.2 227.69 196.73 209.56 207.2"/>
    <polygon class="cls-1" id="svg_3" points="97.64 159.11 97.64 138.17 79.51 127.71 61.38 138.17 61.38 159.11 79.51 169.58 97.64 159.11"/>
   </g>
  </g>
 </g>
</svg>